<svg xmlns="http://www.w3.org/2000/svg" width="1800" height="1150" viewBox="0 0 1800 1150"><defs><marker id="head" viewBox="0 0 10 10" refX="9" refY="5" markerWidth="6" markerHeight="6" orient="auto-start-reverse"><path d="M0 0L10 5L0 10Z" fill="context-stroke"/></marker></defs><rect width="100%" height="100%" fill="white"/><text x="35" y="59.31999999999999" font-family="Arial, sans-serif" font-size="19" fill="#17243A" text-anchor="start" font-weight="700"><tspan x="35" dy="0">Patch embedding</tspan></text><rect x="35" y="88" width="18" height="18" rx="0" fill="#C1DCE7" stroke="#B9C9D7" stroke-width="0.7" fill-opacity="1"/><rect x="54" y="88" width="18" height="18" rx="0" fill="#B5D4D1" stroke="#B9C9D7" stroke-width="0.7" fill-opacity="1"/><rect x="73" y="88" width="18" height="18" rx="0" fill="#DAEAF0" stroke="#B9C9D7" stroke-width="0.7" fill-opacity="1"/><rect x="92" y="88" width="18" height="18" rx="0" fill="#91B7D2" stroke="#B9C9D7" stroke-width="0.7" fill-opacity="1"/><rect x="35" y="107" width="18" height="18" rx="0" fill="#B5D4D1" stroke="#B9C9D7" stroke-width="0.7" fill-opacity="1"/><rect x="54" y="107" width="18" height="18" rx="0" fill="#B5D4D1" stroke="#B9C9D7" stroke-width="0.7" fill-opacity="1"/><rect x="73" y="107" width="18" height="18" rx="0" fill="#B5D4D1" stroke="#B9C9D7" stroke-width="0.7" fill-opacity="1"/><rect x="92" y="107" width="18" height="18" rx="0" fill="#B5D4D1" stroke="#B9C9D7" stroke-width="0.7" fill-opacity="1"/><rect x="35" y="126" width="18" height="18" rx="0" fill="#DAEAF0" stroke="#B9C9D7" stroke-width="0.7" fill-opacity="1"/><rect x="54" y="126" width="18" height="18" rx="0" fill="#B5D4D1" stroke="#B9C9D7" stroke-width="0.7" fill-opacity="1"/><rect x="73" y="126" width="18" height="18" rx="0" fill="#C1DCE7" stroke="#B9C9D7" stroke-width="0.7" fill-opacity="1"/><rect x="92" y="126" width="18" height="18" rx="0" fill="#C1DCE7" stroke="#B9C9D7" stroke-width="0.7" fill-opacity="1"/><rect x="35" y="145" width="18" height="18" rx="0" fill="#91B7D2" stroke="#B9C9D7" stroke-width="0.7" fill-opacity="1"/><rect x="54" y="145" width="18" height="18" rx="0" fill="#B5D4D1" stroke="#B9C9D7" stroke-width="0.7" fill-opacity="1"/><rect x="73" y="145" width="18" height="18" rx="0" fill="#C1DCE7" stroke="#B9C9D7" stroke-width="0.7" fill-opacity="1"/><rect x="92" y="145" width="18" height="18" rx="0" fill="#DAEAF0" stroke="#B9C9D7" stroke-width="0.7" fill-opacity="1"/><polyline points="116,130 139,130" fill="none" stroke="#17243A" stroke-width="2"  marker-end="url(#head)"/><rect x="142" y="107" width="63" height="46" rx="4" fill="#E3EDF5" stroke="#688BA7" stroke-width="1.5" fill-opacity="1"/><text x="173.5" y="133.64000000000001" font-family="Arial, sans-serif" font-size="13" fill="#17243A" text-anchor="middle" font-weight="700"><tspan x="173.5" dy="0">Linear</tspan></text><polyline points="209,130 230,130" fill="none" stroke="#17243A" stroke-width="2"  marker-end="url(#head)"/><rect x="234" y="113" width="16" height="34" rx="2" fill="#E3EDF5" stroke="#B9C9D7" stroke-width="1" fill-opacity="1"/><rect x="256" y="113" width="16" height="34" rx="2" fill="#DEEFEB" stroke="#B9C9D7" stroke-width="1" fill-opacity="1"/><rect x="278" y="113" width="16" height="34" rx="2" fill="#EEE8F5" stroke="#B9C9D7" stroke-width="1" fill-opacity="1"/><rect x="300" y="113" width="16" height="34" rx="2" fill="#E3EDF5" stroke="#B9C9D7" stroke-width="1" fill-opacity="1"/><text x="35" y="182.36" font-family="Arial, sans-serif" font-size="12" fill="#586B80" text-anchor="start" font-weight="400"><tspan x="35" dy="0">P × P patches</tspan></text><text x="216" y="182.36" font-family="Arial, sans-serif" font-size="12" fill="#586B80" text-anchor="start" font-weight="400"><tspan x="216" dy="0">+ position</tspan></text><text x="480" y="58.04" font-family="Arial, sans-serif" font-size="18" fill="#17243A" text-anchor="start" font-weight="700"><tspan x="480" dy="0">Token sequence</tspan></text><rect x="490" y="80" width="16" height="34" rx="2" fill="#E3EDF5" stroke="#B9C9D7" stroke-width="1" fill-opacity="1"/><rect x="512" y="80" width="16" height="34" rx="2" fill="#DEEFEB" stroke="#B9C9D7" stroke-width="1" fill-opacity="1"/><rect x="534" y="80" width="16" height="34" rx="2" fill="#EEE8F5" stroke="#B9C9D7" stroke-width="1" fill-opacity="1"/><rect x="556" y="80" width="16" height="34" rx="2" fill="#E3EDF5" stroke="#B9C9D7" stroke-width="1" fill-opacity="1"/><rect x="578" y="80" width="16" height="34" rx="2" fill="#DEEFEB" stroke="#B9C9D7" stroke-width="1" fill-opacity="1"/><rect x="600" y="80" width="16" height="34" rx="2" fill="#EEE8F5" stroke="#B9C9D7" stroke-width="1" fill-opacity="1"/><rect x="622" y="80" width="16" height="34" rx="2" fill="#E3EDF5" stroke="#B9C9D7" stroke-width="1" fill-opacity="1"/><rect x="644" y="80" width="16" height="34" rx="2" fill="#DEEFEB" stroke="#B9C9D7" stroke-width="1" fill-opacity="1"/><rect x="666" y="80" width="16" height="34" rx="2" fill="#EEE8F5" stroke="#B9C9D7" stroke-width="1" fill-opacity="1"/><text x="590" y="132.35999999999999" font-family="Arial, sans-serif" font-size="12" fill="#586B80" text-anchor="middle" font-weight="400"><tspan x="590" dy="0">N × D</tspan></text><rect x="925" y="40" width="360" height="190" rx="8" fill="#F6F9FC" stroke="#B9C9D7" stroke-width="1" fill-opacity="1"/><text x="937" y="65.54" font-family="Arial, sans-serif" font-size="18" fill="#17243A" text-anchor="start" font-weight="700"><tspan x="937" dy="0">Transformer encoder × L</tspan></text><polyline points="925,135 945,135" fill="none" stroke="#17243A" stroke-width="2"  marker-end="url(#head)"/><rect x="945" y="113" width="33" height="44" rx="3" fill="#FFFFFF" stroke="#B9C9D7" stroke-width="1.5" fill-opacity="1"/><text x="961.5" y="138.36" font-family="Arial, sans-serif" font-size="12" fill="#17243A" text-anchor="middle" font-weight="700"><tspan x="961.5" dy="0">LN</tspan></text><rect x="987" y="113" width="58" height="44" rx="3" fill="#E3EDF5" stroke="#B9C9D7" stroke-width="1.5" fill-opacity="1"/><text x="1016" y="138.36" font-family="Arial, sans-serif" font-size="12" fill="#17243A" text-anchor="middle" font-weight="700"><tspan x="1016" dy="0">MHSA</tspan></text><ellipse cx="1071" cy="135" rx="13" ry="13" fill="#FFFFFF" stroke="#586B80" stroke-width="1.5"/><text x="1071" y="139.76" font-family="Arial, sans-serif" font-size="17" fill="#17243A" text-anchor="middle" font-weight="400"><tspan x="1071" dy="0">+</tspan></text><rect x="1094" y="113" width="33" height="44" rx="3" fill="#FFFFFF" stroke="#B9C9D7" stroke-width="1.5" fill-opacity="1"/><text x="1110.5" y="138.36" font-family="Arial, sans-serif" font-size="12" fill="#17243A" text-anchor="middle" font-weight="700"><tspan x="1110.5" dy="0">LN</tspan></text><rect x="1136" y="113" width="54" height="44" rx="3" fill="#E3EDF5" stroke="#B9C9D7" stroke-width="1.5" fill-opacity="1"/><text x="1163" y="138.36" font-family="Arial, sans-serif" font-size="12" fill="#17243A" text-anchor="middle" font-weight="700"><tspan x="1163" dy="0">MLP</tspan></text><ellipse cx="1232" cy="135" rx="13" ry="13" fill="#FFFFFF" stroke="#586B80" stroke-width="1.5"/><text x="1232" y="139.76" font-family="Arial, sans-serif" font-size="17" fill="#17243A" text-anchor="middle" font-weight="400"><tspan x="1232" dy="0">+</tspan></text><polyline points="978,135 987,135" fill="none" stroke="#17243A" stroke-width="1.4"  marker-end="url(#head)"/><polyline points="1045,135 1058,135" fill="none" stroke="#17243A" stroke-width="1.4"  marker-end="url(#head)"/><polyline points="1084,135 1094,135" fill="none" stroke="#17243A" stroke-width="1.4"  marker-end="url(#head)"/><polyline points="1127,135 1136,135" fill="none" stroke="#17243A" stroke-width="1.4"  marker-end="url(#head)"/><polyline points="1190,135 1219,135" fill="none" stroke="#17243A" stroke-width="1.4"  marker-end="url(#head)"/><polyline points="1245,135 1285,135" fill="none" stroke="#17243A" stroke-width="1.4"  marker-end="url(#head)"/><polyline points="935,135 935,90 1071,90 1071,122" fill="none" stroke="#17243A" stroke-width="1.3"  marker-end="url(#head)"/><polyline points="1089,135 1089,185 1232,185 1232,148" fill="none" stroke="#17243A" stroke-width="1.3"  marker-end="url(#head)"/><text x="1106" y="212.36" font-family="Arial, sans-serif" font-size="12" fill="#586B80" text-anchor="middle" font-weight="400"><tspan x="1106" dy="0">pre-norm · residual connections</tspan></text><text x="1370" y="58.04" font-family="Arial, sans-serif" font-size="18" fill="#17243A" text-anchor="start" font-weight="700"><tspan x="1370" dy="0">Multi-head self-attention</tspan></text><rect x="1382" y="82" width="40" height="28" rx="3" fill="#E3EDF5" stroke="#B9C9D7" stroke-width="1.5" fill-opacity="1"/><text x="1402" y="99.92" font-family="Arial, sans-serif" font-size="14" fill="#17243A" text-anchor="middle" font-weight="700"><tspan x="1402" dy="0">Q</tspan></text><rect x="1382" y="124" width="40" height="28" rx="3" fill="#EEE8F5" stroke="#B9C9D7" stroke-width="1.5" fill-opacity="1"/><text x="1402" y="141.92" font-family="Arial, sans-serif" font-size="14" fill="#17243A" text-anchor="middle" font-weight="700"><tspan x="1402" dy="0">K</tspan></text><rect x="1382" y="166" width="40" height="28" rx="3" fill="#DEEFEB" stroke="#B9C9D7" stroke-width="1.5" fill-opacity="1"/><text x="1402" y="183.92" font-family="Arial, sans-serif" font-size="14" fill="#17243A" text-anchor="middle" font-weight="700"><tspan x="1402" dy="0">V</tspan></text><polyline points="1423,96 1474,96 1474,113" fill="none" stroke="#17243A" stroke-width="2"  marker-end="url(#head)"/><polyline points="1423,138 1449,138 1449,125 1474,125" fill="none" stroke="#17243A" stroke-width="2"  marker-end="url(#head)"/><rect x="1474" y="100" width="87" height="40" rx="4" fill="#E3EDF5" stroke="#B9C9D7" stroke-width="1.5" fill-opacity="1"/><text x="1517.5" y="123.36" font-family="Arial, sans-serif" font-size="12" fill="#17243A" text-anchor="middle" font-weight="700"><tspan x="1517.5" dy="0">QKᵀ / √d</tspan></text><polyline points="1562,120 1575,120" fill="none" stroke="#17243A" stroke-width="2"  marker-end="url(#head)"/><rect x="1575" y="100" width="80" height="40" rx="4" fill="#DEEFEB" stroke="#B9C9D7" stroke-width="1.5" fill-opacity="1"/><text x="1615" y="123.36" font-family="Arial, sans-serif" font-size="12" fill="#17243A" text-anchor="middle" font-weight="700"><tspan x="1615" dy="0">Softmax</tspan></text><polyline points="1615,141 1615,166" fill="none" stroke="#17243A" stroke-width="2"  marker-end="url(#head)"/><polyline points="1423,180 1600,180" fill="none" stroke="#17243A" stroke-width="2"  marker-end="url(#head)"/><ellipse cx="1615" cy="180" rx="14" ry="14" fill="#FFFFFF" stroke="#586B80" stroke-width="1.5"/><text x="1615" y="184.48000000000002" font-family="Arial, sans-serif" font-size="16" fill="#17243A" text-anchor="middle" font-weight="400"><tspan x="1615" dy="0">×</tspan></text><polyline points="1630,180 1647,180" fill="none" stroke="#17243A" stroke-width="1.3"  marker-end="url(#head)"/><rect x="1648" y="159" width="50" height="43" rx="3" fill="#EEE8F5" stroke="#B9C9D7" stroke-width="1.5" fill-opacity="1"/><text x="1673" y="177.89999999999998" font-family="Arial, sans-serif" font-size="10" fill="#17243A" text-anchor="middle" font-weight="700"><tspan x="1673" dy="0">Concat</tspan><tspan x="1673" dy="10.8">Proj</tspan></text><text x="1464" y="216.36" font-family="Arial, sans-serif" font-size="12" fill="#586B80" text-anchor="start" font-weight="400"><tspan x="1464" dy="0">per head</tspan></text><rect x="35" y="320" width="360" height="280" rx="8" fill="#FAF9FC" stroke="#B9C9D7" stroke-width="1" fill-opacity="1"/><text x="47" y="345.53999999999996" font-family="Arial, sans-serif" font-size="18" fill="#17243A" text-anchor="start" font-weight="700"><tspan x="47" dy="0">DPT decoder</tspan></text><text x="47" y="368.35999999999996" font-family="Arial, sans-serif" font-size="12" fill="#586B80" text-anchor="start" font-weight="400"><tspan x="47" dy="0">Reassemble → multi-scale fusion</tspan></text><polyline points="35,445 43,445" fill="none" stroke="#17243A" stroke-width="2"  /><polyline points="43,445 43,383" fill="none" stroke="#17243A" stroke-width="2"  /><polyline points="43,383 340,383" fill="none" stroke="#17243A" stroke-width="2"  /><polyline points="83,383 83,398" fill="none" stroke="#17243A" stroke-width="1.3"  marker-end="url(#head)"/><rect x="55" y="398" width="55" height="29" rx="3" fill="#EEE8F5" stroke="#B9C9D7" stroke-width="1.5" fill-opacity="1"/><text x="82.5" y="415.85999999999996" font-family="Arial, sans-serif" font-size="12" fill="#17243A" text-anchor="middle" font-weight="700"><tspan x="82.5" dy="0">R1</tspan></text><polyline points="83,428 83,440" fill="none" stroke="#17243A" stroke-width="1.3"  marker-end="url(#head)"/><polygon points="66,446 84,442 84,460 66,464" fill="#FFFFFF" stroke="#8A77AB" stroke-width="1.6"/><polygon points="63,451 81,447 81,465 63,469" fill="#EEE8F5" stroke="#8A77AB" stroke-width="1.6"/><polyline points="83,483 83,521" fill="none" stroke="#17243A" stroke-width="1.3"  marker-end="url(#head)"/><rect x="55" y="522" width="60" height="30" rx="3" fill="#EEE8F5" stroke="#B9C9D7" stroke-width="1.5" fill-opacity="1"/><text x="85" y="539.8000000000001" font-family="Arial, sans-serif" font-size="10" fill="#17243A" text-anchor="middle" font-weight="700"><tspan x="85" dy="0">Refine</tspan></text><polyline points="115,537 136,537" fill="none" stroke="#17243A" stroke-width="1.3"  marker-end="url(#head)"/><polyline points="164,383 164,398" fill="none" stroke="#17243A" stroke-width="1.3"  marker-end="url(#head)"/><rect x="136" y="398" width="55" height="29" rx="3" fill="#EEE8F5" stroke="#B9C9D7" stroke-width="1.5" fill-opacity="1"/><text x="163.5" y="415.85999999999996" font-family="Arial, sans-serif" font-size="12" fill="#17243A" text-anchor="middle" font-weight="700"><tspan x="163.5" dy="0">R2</tspan></text><polyline points="164,428 164,440" fill="none" stroke="#17243A" stroke-width="1.3"  marker-end="url(#head)"/><polygon points="147,446 171,442 171,466 147,470" fill="#FFFFFF" stroke="#8A77AB" stroke-width="1.6"/><polygon points="144,451 168,447 168,471 144,475" fill="#EEE8F5" stroke="#8A77AB" stroke-width="1.6"/><polyline points="164,483 164,521" fill="none" stroke="#17243A" stroke-width="1.3"  marker-end="url(#head)"/><rect x="136" y="522" width="60" height="30" rx="3" fill="#EEE8F5" stroke="#B9C9D7" stroke-width="1.5" fill-opacity="1"/><text x="166" y="539.8000000000001" font-family="Arial, sans-serif" font-size="10" fill="#17243A" text-anchor="middle" font-weight="700"><tspan x="166" dy="0">Fuse ↑2</tspan></text><polyline points="196,537 217,537" fill="none" stroke="#17243A" stroke-width="1.3"  marker-end="url(#head)"/><polyline points="245,383 245,398" fill="none" stroke="#17243A" stroke-width="1.3"  marker-end="url(#head)"/><rect x="217" y="398" width="55" height="29" rx="3" fill="#EEE8F5" stroke="#B9C9D7" stroke-width="1.5" fill-opacity="1"/><text x="244.5" y="415.85999999999996" font-family="Arial, sans-serif" font-size="12" fill="#17243A" text-anchor="middle" font-weight="700"><tspan x="244.5" dy="0">R3</tspan></text><polyline points="245,428 245,440" fill="none" stroke="#17243A" stroke-width="1.3"  marker-end="url(#head)"/><polygon points="228,446 258,442 258,472 228,476" fill="#FFFFFF" stroke="#8A77AB" stroke-width="1.6"/><polygon points="225,451 255,447 255,477 225,481" fill="#EEE8F5" stroke="#8A77AB" stroke-width="1.6"/><polyline points="245,483 245,521" fill="none" stroke="#17243A" stroke-width="1.3"  marker-end="url(#head)"/><rect x="217" y="522" width="60" height="30" rx="3" fill="#EEE8F5" stroke="#B9C9D7" stroke-width="1.5" fill-opacity="1"/><text x="247" y="539.8000000000001" font-family="Arial, sans-serif" font-size="10" fill="#17243A" text-anchor="middle" font-weight="700"><tspan x="247" dy="0">Fuse ↑2</tspan></text><polyline points="277,537 298,537" fill="none" stroke="#17243A" stroke-width="1.3"  marker-end="url(#head)"/><polyline points="326,383 326,398" fill="none" stroke="#17243A" stroke-width="1.3"  marker-end="url(#head)"/><rect x="298" y="398" width="55" height="29" rx="3" fill="#EEE8F5" stroke="#B9C9D7" stroke-width="1.5" fill-opacity="1"/><text x="325.5" y="415.85999999999996" font-family="Arial, sans-serif" font-size="12" fill="#17243A" text-anchor="middle" font-weight="700"><tspan x="325.5" dy="0">R4</tspan></text><polyline points="326,428 326,440" fill="none" stroke="#17243A" stroke-width="1.3"  marker-end="url(#head)"/><polygon points="309,446 345,442 345,478 309,482" fill="#FFFFFF" stroke="#8A77AB" stroke-width="1.6"/><polygon points="306,451 342,447 342,483 306,487" fill="#EEE8F5" stroke="#8A77AB" stroke-width="1.6"/><polyline points="326,483 326,521" fill="none" stroke="#17243A" stroke-width="1.3"  marker-end="url(#head)"/><rect x="298" y="522" width="60" height="30" rx="3" fill="#EEE8F5" stroke="#B9C9D7" stroke-width="1.5" fill-opacity="1"/><text x="328" y="539.8000000000001" font-family="Arial, sans-serif" font-size="10" fill="#17243A" text-anchor="middle" font-weight="700"><tspan x="328" dy="0">Fuse ↑2</tspan></text><polyline points="358,537 383,537 383,445 395,445" fill="none" stroke="#17243A" stroke-width="1.4"  marker-end="url(#head)"/><text x="55" y="575.0799999999999" font-family="Arial, sans-serif" font-size="11" fill="#586B80" text-anchor="start" font-weight="400"><tspan x="55" dy="0">coarse</tspan></text><text x="308" y="575.0799999999999" font-family="Arial, sans-serif" font-size="11" fill="#586B80" text-anchor="start" font-weight="400"><tspan x="308" dy="0">fine</tspan></text><text x="480" y="338.03999999999996" font-family="Arial, sans-serif" font-size="18" fill="#17243A" text-anchor="start" font-weight="700"><tspan x="480" dy="0">Convolution block</tspan></text><rect x="480" y="368" width="75" height="42" rx="4" fill="#E3EDF5" stroke="#B9C9D7" stroke-width="1.5" fill-opacity="1"/><text x="517.5" y="392.35999999999996" font-family="Arial, sans-serif" font-size="12" fill="#17243A" text-anchor="middle" font-weight="700"><tspan x="517.5" dy="0">Conv 3×3</tspan></text><polyline points="555,389 565,389" fill="none" stroke="#17243A" stroke-width="1.2"  marker-end="url(#head)"/><rect x="565" y="368" width="75" height="42" rx="4" fill="#FFFFFF" stroke="#B9C9D7" stroke-width="1.5" fill-opacity="1"/><text x="602.5" y="392.35999999999996" font-family="Arial, sans-serif" font-size="12" fill="#17243A" text-anchor="middle" font-weight="700"><tspan x="602.5" dy="0">Norm</tspan></text><polyline points="640,389 650,389" fill="none" stroke="#17243A" stroke-width="1.2"  marker-end="url(#head)"/><rect x="650" y="368" width="75" height="42" rx="4" fill="#DEEFEB" stroke="#B9C9D7" stroke-width="1.5" fill-opacity="1"/><text x="687.5" y="392.35999999999996" font-family="Arial, sans-serif" font-size="12" fill="#17243A" text-anchor="middle" font-weight="700"><tspan x="687.5" dy="0">GELU</tspan></text><text x="925" y="338.03999999999996" font-family="Arial, sans-serif" font-size="18" fill="#17243A" text-anchor="start" font-weight="700"><tspan x="925" dy="0">Upsample ×2</tspan></text><rect x="930" y="370" width="14" height="14" rx="0" fill="#EEE8F5" stroke="#B9C9D7" stroke-width="0.7" fill-opacity="1"/><rect x="945" y="370" width="14" height="14" rx="0" fill="#F7E6ED" stroke="#B9C9D7" stroke-width="0.7" fill-opacity="1"/><rect x="930" y="385" width="14" height="14" rx="0" fill="#E8EEF4" stroke="#B9C9D7" stroke-width="0.7" fill-opacity="1"/><rect x="945" y="385" width="14" height="14" rx="0" fill="#FFFFFF" stroke="#B9C9D7" stroke-width="0.7" fill-opacity="1"/><polyline points="968,386 1021,386" fill="none" stroke="#17243A" stroke-width="2"  marker-end="url(#head)"/><rect x="1030" y="357" width="14" height="14" rx="0" fill="#EEE8F5" stroke="#B9C9D7" stroke-width="0.7" fill-opacity="1"/><rect x="1045" y="357" width="14" height="14" rx="0" fill="#F7E6ED" stroke="#B9C9D7" stroke-width="0.7" fill-opacity="1"/><rect x="1060" y="357" width="14" height="14" rx="0" fill="#E8EEF4" stroke="#B9C9D7" stroke-width="0.7" fill-opacity="1"/><rect x="1075" y="357" width="14" height="14" rx="0" fill="#DEEFEB" stroke="#B9C9D7" stroke-width="0.7" fill-opacity="1"/><rect x="1030" y="372" width="14" height="14" rx="0" fill="#E8EEF4" stroke="#B9C9D7" stroke-width="0.7" fill-opacity="1"/><rect x="1045" y="372" width="14" height="14" rx="0" fill="#FFFFFF" stroke="#B9C9D7" stroke-width="0.7" fill-opacity="1"/><rect x="1060" y="372" width="14" height="14" rx="0" fill="#F7E6ED" stroke="#B9C9D7" stroke-width="0.7" fill-opacity="1"/><rect x="1075" y="372" width="14" height="14" rx="0" fill="#DEEFEB" stroke="#B9C9D7" stroke-width="0.7" fill-opacity="1"/><rect x="1030" y="387" width="14" height="14" rx="0" fill="#FFFFFF" stroke="#B9C9D7" stroke-width="0.7" fill-opacity="1"/><rect x="1045" y="387" width="14" height="14" rx="0" fill="#E8EEF4" stroke="#B9C9D7" stroke-width="0.7" fill-opacity="1"/><rect x="1060" y="387" width="14" height="14" rx="0" fill="#EEE8F5" stroke="#B9C9D7" stroke-width="0.7" fill-opacity="1"/><rect x="1075" y="387" width="14" height="14" rx="0" fill="#DEEFEB" stroke="#B9C9D7" stroke-width="0.7" fill-opacity="1"/><rect x="1030" y="402" width="14" height="14" rx="0" fill="#F7E6ED" stroke="#B9C9D7" stroke-width="0.7" fill-opacity="1"/><rect x="1045" y="402" width="14" height="14" rx="0" fill="#EEE8F5" stroke="#B9C9D7" stroke-width="0.7" fill-opacity="1"/><rect x="1060" y="402" width="14" height="14" rx="0" fill="#FFFFFF" stroke="#B9C9D7" stroke-width="0.7" fill-opacity="1"/><rect x="1075" y="402" width="14" height="14" rx="0" fill="#DEEFEB" stroke="#B9C9D7" stroke-width="0.7" fill-opacity="1"/><text x="925" y="444.35999999999996" font-family="Arial, sans-serif" font-size="12" fill="#586B80" text-anchor="start" font-weight="400"><tspan x="925" dy="0">H × W → 2H × 2W</tspan></text><rect x="1370" y="320" width="420" height="220" rx="8" fill="#FFF9F3" stroke="#B9C9D7" stroke-width="1" fill-opacity="1"/><text x="1384" y="346.53999999999996" font-family="Arial, sans-serif" font-size="18" fill="#17243A" text-anchor="start" font-weight="700"><tspan x="1384" dy="0">Proposed residual adapter</tspan></text><polyline points="1370,432 1388,432" fill="none" stroke="#17243A" stroke-width="2"  marker-end="url(#head)"/><rect x="1388" y="401" width="85" height="62" rx="4" fill="#F7E6D7" stroke="#B9C9D7" stroke-width="1.5" fill-opacity="1"/><text x="1430.5" y="428.88" font-family="Arial, sans-serif" font-size="12" fill="#17243A" text-anchor="middle" font-weight="700"><tspan x="1430.5" dy="0">1×1 Conv</tspan><tspan x="1430.5" dy="12.96">Resize</tspan></text><text x="1430" y="514.36" font-family="Arial, sans-serif" font-size="12" fill="#586B80" text-anchor="middle" font-weight="400"><tspan x="1430" dy="0">H × W</tspan></text><polyline points="1474,432 1489,432 1489,390 1505,390" fill="none" stroke="#17243A" stroke-width="2"  marker-end="url(#head)"/><polyline points="1489,432 1489,478 1505,478" fill="none" stroke="#17243A" stroke-width="2"  marker-end="url(#head)"/><rect x="1505" y="370" width="100" height="40" rx="4" fill="#DEEFEB" stroke="#B9C9D7" stroke-width="1.5" fill-opacity="1"/><text x="1555" y="393.64000000000004" font-family="Arial, sans-serif" font-size="13" fill="#17243A" text-anchor="middle" font-weight="700"><tspan x="1555" dy="0">Conv → σ</tspan></text><rect x="1505" y="458" width="100" height="40" rx="4" fill="#F7E6D7" stroke="#B9C9D7" stroke-width="1.5" fill-opacity="1"/><text x="1555" y="481.64000000000004" font-family="Arial, sans-serif" font-size="13" fill="#17243A" text-anchor="middle" font-weight="700"><tspan x="1555" dy="0">Conv</tspan></text><polyline points="1606,390 1664,390 1664,416" fill="none" stroke="#17243A" stroke-width="2"  marker-end="url(#head)"/><polyline points="1606,478 1664,478 1664,448" fill="none" stroke="#17243A" stroke-width="2"  marker-end="url(#head)"/><text x="1620" y="378.64000000000004" font-family="Arial, sans-serif" font-size="13" fill="#4B8F88" text-anchor="start" font-weight="400"><tspan x="1620" dy="0">G</tspan></text><text x="1620" y="498.64000000000004" font-family="Arial, sans-serif" font-size="13" fill="#B98560" text-anchor="start" font-weight="400"><tspan x="1620" dy="0">R</tspan></text><ellipse cx="1664" cy="432" rx="16" ry="16" fill="#FFFFFF" stroke="#586B80" stroke-width="1.5"/><text x="1664" y="437.03999999999996" font-family="Arial, sans-serif" font-size="18" fill="#17243A" text-anchor="middle" font-weight="400"><tspan x="1664" dy="0">×</tspan></text><polyline points="1681,432 1790,432" fill="none" stroke="#17243A" stroke-width="2"  marker-end="url(#head)"/><text x="1680" y="472.64000000000004" font-family="Arial, sans-serif" font-size="13" fill="#17243A" text-anchor="start" font-weight="400"><tspan x="1680" dy="0">ΔD = G ⊙ R</tspan></text><polygon points="86,654 190,640 190,747 86,761" fill="#FFFFFF" stroke="#688BA7" stroke-width="1.6"/><polygon points="76,659 180,645 180,752 76,766" fill="#FFFFFF" stroke="#688BA7" stroke-width="1.6"/><polygon points="66,664 170,650 170,757 66,771" fill="#FFFFFF" stroke="#688BA7" stroke-width="1.6"/><polygon points="56,669 160,655 160,762 56,776" fill="#E3EDF5" stroke="#688BA7" stroke-width="1.6"/><text x="52" y="626.2600000000001" font-family="Arial, sans-serif" font-size="17" fill="#17243A" text-anchor="start" font-weight="700"><tspan x="52" dy="0">FEATURE MAPS</tspan></text><text x="48" y="795.64" font-family="Arial, sans-serif" font-size="13" fill="#586B80" text-anchor="start" font-weight="400"><tspan x="48" dy="0">H × W × C</tspan></text><rect x="480" y="600" width="246" height="184" rx="14" fill="#FFFFFF" stroke="#B9C9D7" stroke-width="1.4" fill-opacity="1"/><rect x="480" y="600" width="246" height="33" rx="12" fill="#DEEFEB" stroke="#DEEFEB" stroke-width="0" fill-opacity="1"/><text x="494" y="621.48" font-family="Arial, sans-serif" font-size="16" fill="#4B8F88" text-anchor="start" font-weight="700"><tspan x="494" dy="0">CHANNEL ATTENTION</tspan></text><text x="494" y="652.36" font-family="Arial, sans-serif" font-size="12" fill="#586B80" text-anchor="start" font-weight="400"><tspan x="494" dy="0">squeeze → gate → reweight</tspan></text><polygon points="508,686 546,679 546,731 508,738" fill="#FFFFFF" stroke="#4B8F88" stroke-width="1.6"/><polygon points="502,691 540,684 540,736 502,743" fill="#FFFFFF" stroke="#4B8F88" stroke-width="1.6"/><polygon points="496,696 534,689 534,741 496,748" fill="#DEEFEB" stroke="#4B8F88" stroke-width="1.6"/><polyline points="561,715 579,715" fill="none" stroke="#4B8F88" stroke-width="1.7"  marker-end="url(#head)"/><rect x="579" y="693" width="64" height="43" rx="8" fill="#DEEFEB" stroke="#4B8F88" stroke-width="1.2" fill-opacity="1"/><text x="611" y="717.5799999999999" font-family="Arial, sans-serif" font-size="11" fill="#17243A" text-anchor="middle" font-weight="700"><tspan x="611" dy="0">Pool</tspan></text><polyline points="646,715 654,715" fill="none" stroke="#4B8F88" stroke-width="1.7"  marker-end="url(#head)"/><ellipse cx="674" cy="715" rx="16" ry="16" fill="#FFFFFF" stroke="#4B8F88" stroke-width="1.5"/><text x="674" y="719.82" font-family="Arial, sans-serif" font-size="19" fill="#4B8F88" text-anchor="middle" font-weight="700"><tspan x="674" dy="0">σ</tspan></text><polyline points="694,715 714,715" fill="none" stroke="#4B8F88" stroke-width="1.7"  marker-end="url(#head)"/><text x="603" y="768.86" font-family="Arial, sans-serif" font-size="12" fill="#586B80" text-anchor="middle" font-weight="400"><tspan x="603" dy="0">weighted feature map</tspan></text><rect x="925" y="600" width="326" height="176" rx="15" fill="#FFFFFF" stroke="#688BA7" stroke-width="1.7" fill-opacity="1"/><text x="942" y="629.54" font-family="Arial, sans-serif" font-size="18" fill="#17243A" text-anchor="start" font-weight="700"><tspan x="942" dy="0">Denoising U-Net</tspan></text><rect x="944" y="676" width="66" height="44" rx="10" fill="#E3EDF5" stroke="#688BA7" stroke-width="1.5" fill-opacity="1"/><text x="977" y="701.36" font-family="Arial, sans-serif" font-size="12" fill="#17243A" text-anchor="middle" font-weight="700"><tspan x="977" dy="0">Encoder</tspan></text><rect x="1046" y="692" width="84" height="44" rx="10" fill="#EEE8F5" stroke="#8A77AB" stroke-width="1.5" fill-opacity="1"/><text x="1088" y="717.0799999999999" font-family="Arial, sans-serif" font-size="11" fill="#17243A" text-anchor="middle" font-weight="700"><tspan x="1088" dy="0">Bottleneck</tspan></text><rect x="1166" y="676" width="66" height="44" rx="10" fill="#DEEFEB" stroke="#4B8F88" stroke-width="1.5" fill-opacity="1"/><text x="1199" y="701.36" font-family="Arial, sans-serif" font-size="12" fill="#17243A" text-anchor="middle" font-weight="700"><tspan x="1199" dy="0">Decoder</tspan></text><polyline points="1010,698 1044,714" fill="none" stroke="#688BA7" stroke-width="1.8"  marker-end="url(#head)"/><polyline points="1131,714 1165,698" fill="none" stroke="#4B8F88" stroke-width="1.8"  marker-end="url(#head)"/><polyline points="977,672 977,660 1199,660 1199,672" fill="none" stroke="#B98560" stroke-width="1.8"  marker-end="url(#head)"/><text x="1088" y="650.5799999999999" font-family="Arial, sans-serif" font-size="11" fill="#B98560" text-anchor="middle" font-weight="700"><tspan x="1088" dy="0">skip connection</tspan></text><text x="1088" y="763.36" font-family="Arial, sans-serif" font-size="12" fill="#586B80" text-anchor="middle" font-weight="400"><tspan x="1088" dy="0">multi-scale features</tspan></text><rect x="1387" y="635" width="17" height="17" rx="0" fill="#EEE8F5" stroke="#B9C9D7" stroke-width="0.7" fill-opacity="1"/><rect x="1405" y="635" width="17" height="17" rx="0" fill="#F7E6ED" stroke="#B9C9D7" stroke-width="0.7" fill-opacity="1"/><rect x="1423" y="635" width="17" height="17" rx="0" fill="#E8EEF4" stroke="#B9C9D7" stroke-width="0.7" fill-opacity="1"/><rect x="1441" y="635" width="17" height="17" rx="0" fill="#DEEFEB" stroke="#B9C9D7" stroke-width="0.7" fill-opacity="1"/><rect x="1459" y="635" width="17" height="17" rx="0" fill="#FFFFFF" stroke="#B9C9D7" stroke-width="0.7" fill-opacity="1"/><rect x="1477" y="635" width="17" height="17" rx="0" fill="#EEE8F5" stroke="#B9C9D7" stroke-width="0.7" fill-opacity="1"/><rect x="1495" y="635" width="17" height="17" rx="0" fill="#F7E6ED" stroke="#B9C9D7" stroke-width="0.7" fill-opacity="1"/><rect x="1387" y="653" width="17" height="17" rx="0" fill="#E8EEF4" stroke="#B9C9D7" stroke-width="0.7" fill-opacity="1"/><rect x="1405" y="653" width="17" height="17" rx="0" fill="#FFFFFF" stroke="#B9C9D7" stroke-width="0.7" fill-opacity="1"/><rect x="1423" y="653" width="17" height="17" rx="0" fill="#F7E6ED" stroke="#B9C9D7" stroke-width="0.7" fill-opacity="1"/><rect x="1441" y="653" width="17" height="17" rx="0" fill="#DEEFEB" stroke="#B9C9D7" stroke-width="0.7" fill-opacity="1"/><rect x="1459" y="653" width="17" height="17" rx="0" fill="#EEE8F5" stroke="#B9C9D7" stroke-width="0.7" fill-opacity="1"/><rect x="1477" y="653" width="17" height="17" rx="0" fill="#E8EEF4" stroke="#B9C9D7" stroke-width="0.7" fill-opacity="1"/><rect x="1495" y="653" width="17" height="17" rx="0" fill="#FFFFFF" stroke="#B9C9D7" stroke-width="0.7" fill-opacity="1"/><rect x="1387" y="671" width="17" height="17" rx="0" fill="#FFFFFF" stroke="#B9C9D7" stroke-width="0.7" fill-opacity="1"/><rect x="1405" y="671" width="17" height="17" rx="0" fill="#E8EEF4" stroke="#B9C9D7" stroke-width="0.7" fill-opacity="1"/><rect x="1423" y="671" width="17" height="17" rx="0" fill="#EEE8F5" stroke="#B9C9D7" stroke-width="0.7" fill-opacity="1"/><rect x="1441" y="671" width="17" height="17" rx="0" fill="#DEEFEB" stroke="#B9C9D7" stroke-width="0.7" fill-opacity="1"/><rect x="1459" y="671" width="17" height="17" rx="0" fill="#F7E6ED" stroke="#B9C9D7" stroke-width="0.7" fill-opacity="1"/><rect x="1477" y="671" width="17" height="17" rx="0" fill="#FFFFFF" stroke="#B9C9D7" stroke-width="0.7" fill-opacity="1"/><rect x="1495" y="671" width="17" height="17" rx="0" fill="#E8EEF4" stroke="#B9C9D7" stroke-width="0.7" fill-opacity="1"/><rect x="1387" y="689" width="17" height="17" rx="0" fill="#F7E6ED" stroke="#B9C9D7" stroke-width="0.7" fill-opacity="1"/><rect x="1405" y="689" width="17" height="17" rx="0" fill="#EEE8F5" stroke="#B9C9D7" stroke-width="0.7" fill-opacity="1"/><rect x="1423" y="689" width="17" height="17" rx="0" fill="#FFFFFF" stroke="#B9C9D7" stroke-width="0.7" fill-opacity="1"/><rect x="1441" y="689" width="17" height="17" rx="0" fill="#DEEFEB" stroke="#B9C9D7" stroke-width="0.7" fill-opacity="1"/><rect x="1459" y="689" width="17" height="17" rx="0" fill="#E8EEF4" stroke="#B9C9D7" stroke-width="0.7" fill-opacity="1"/><rect x="1477" y="689" width="17" height="17" rx="0" fill="#F7E6ED" stroke="#B9C9D7" stroke-width="0.7" fill-opacity="1"/><rect x="1495" y="689" width="17" height="17" rx="0" fill="#EEE8F5" stroke="#B9C9D7" stroke-width="0.7" fill-opacity="1"/><rect x="1387" y="707" width="17" height="17" rx="0" fill="#DEEFEB" stroke="#B9C9D7" stroke-width="0.7" fill-opacity="1"/><rect x="1405" y="707" width="17" height="17" rx="0" fill="#DEEFEB" stroke="#B9C9D7" stroke-width="0.7" fill-opacity="1"/><rect x="1423" y="707" width="17" height="17" rx="0" fill="#DEEFEB" stroke="#B9C9D7" stroke-width="0.7" fill-opacity="1"/><rect x="1441" y="707" width="17" height="17" rx="0" fill="#DEEFEB" stroke="#B9C9D7" stroke-width="0.7" fill-opacity="1"/><rect x="1459" y="707" width="17" height="17" rx="0" fill="#DEEFEB" stroke="#B9C9D7" stroke-width="0.7" fill-opacity="1"/><rect x="1477" y="707" width="17" height="17" rx="0" fill="#DEEFEB" stroke="#B9C9D7" stroke-width="0.7" fill-opacity="1"/><rect x="1495" y="707" width="17" height="17" rx="0" fill="#DEEFEB" stroke="#B9C9D7" stroke-width="0.7" fill-opacity="1"/><text x="1382" y="622.9200000000001" font-family="Arial, sans-serif" font-size="14" fill="#17243A" text-anchor="start" font-weight="700"><tspan x="1382" dy="0">LATENT TENSOR</tspan></text><polyline points="35,905 72,905" fill="none" stroke="#688BA7" stroke-width="2"  /><polyline points="48,948 72,923" fill="none" stroke="#B98098" stroke-width="2"  /><ellipse cx="95.5" cy="921.5" rx="22.5" ry="22.5" fill="#FFFFFF" stroke="#17243A" stroke-width="2"/><text x="95.5" y="926.16" font-family="Arial, sans-serif" font-size="22" fill="#17243A" text-anchor="middle" font-weight="700"><tspan x="95.5" dy="0">⊕</tspan></text><polyline points="119,921 157,921" fill="none" stroke="#17243A" stroke-width="2"  marker-end="url(#head)"/><text x="106" y="964.64" font-family="Arial, sans-serif" font-size="13" fill="#586B80" text-anchor="middle" font-weight="400"><tspan x="106" dy="0">Feature fusion</tspan></text><rect x="485" y="917" width="17" height="17" rx="0" fill="#EEE8F5" stroke="#B9C9D7" stroke-width="0.7" fill-opacity="1"/><rect x="503" y="917" width="17" height="17" rx="0" fill="#F7E6ED" stroke="#B9C9D7" stroke-width="0.7" fill-opacity="1"/><rect x="521" y="917" width="17" height="17" rx="0" fill="#E8EEF4" stroke="#B9C9D7" stroke-width="0.7" fill-opacity="1"/><rect x="485" y="935" width="17" height="17" rx="0" fill="#E8EEF4" stroke="#B9C9D7" stroke-width="0.7" fill-opacity="1"/><rect x="503" y="935" width="17" height="17" rx="0" fill="#FFFFFF" stroke="#B9C9D7" stroke-width="0.7" fill-opacity="1"/><rect x="521" y="935" width="17" height="17" rx="0" fill="#F7E6ED" stroke="#B9C9D7" stroke-width="0.7" fill-opacity="1"/><rect x="485" y="953" width="17" height="17" rx="0" fill="#FFFFFF" stroke="#B9C9D7" stroke-width="0.7" fill-opacity="1"/><rect x="503" y="953" width="17" height="17" rx="0" fill="#E8EEF4" stroke="#B9C9D7" stroke-width="0.7" fill-opacity="1"/><rect x="521" y="953" width="17" height="17" rx="0" fill="#EEE8F5" stroke="#B9C9D7" stroke-width="0.7" fill-opacity="1"/><text x="480" y="904.9200000000001" font-family="Arial, sans-serif" font-size="14" fill="#17243A" text-anchor="start" font-weight="700"><tspan x="480" dy="0">xₜ</tspan></text><polyline points="548,945 568,945" fill="none" stroke="#17243A" stroke-width="1.8"  marker-end="url(#head)"/><rect x="574" y="923" width="86" height="48" rx="10" fill="#E3EDF5" stroke="#688BA7" stroke-width="1.5" fill-opacity="1"/><text x="617" y="950.64" font-family="Arial, sans-serif" font-size="13" fill="#17243A" text-anchor="middle" font-weight="700"><tspan x="617" dy="0">Denoiser</tspan></text><polyline points="664,945 683,945" fill="none" stroke="#17243A" stroke-width="1.8"  marker-end="url(#head)"/><rect x="689" y="917" width="17" height="17" rx="0" fill="#EEE8F5" stroke="#B9C9D7" stroke-width="0.7" fill-opacity="1"/><rect x="707" y="917" width="17" height="17" rx="0" fill="#F7E6ED" stroke="#B9C9D7" stroke-width="0.7" fill-opacity="1"/><rect x="725" y="917" width="17" height="17" rx="0" fill="#E8EEF4" stroke="#B9C9D7" stroke-width="0.7" fill-opacity="1"/><rect x="689" y="935" width="17" height="17" rx="0" fill="#E8EEF4" stroke="#B9C9D7" stroke-width="0.7" fill-opacity="1"/><rect x="707" y="935" width="17" height="17" rx="0" fill="#FFFFFF" stroke="#B9C9D7" stroke-width="0.7" fill-opacity="1"/><rect x="725" y="935" width="17" height="17" rx="0" fill="#F7E6ED" stroke="#B9C9D7" stroke-width="0.7" fill-opacity="1"/><rect x="689" y="953" width="17" height="17" rx="0" fill="#FFFFFF" stroke="#B9C9D7" stroke-width="0.7" fill-opacity="1"/><rect x="707" y="953" width="17" height="17" rx="0" fill="#E8EEF4" stroke="#B9C9D7" stroke-width="0.7" fill-opacity="1"/><rect x="725" y="953" width="17" height="17" rx="0" fill="#EEE8F5" stroke="#B9C9D7" stroke-width="0.7" fill-opacity="1"/><text x="684" y="904.9200000000001" font-family="Arial, sans-serif" font-size="14" fill="#17243A" text-anchor="start" font-weight="700"><tspan x="684" dy="0">xₜ₋₁</tspan></text><rect x="597" y="988" width="34" height="27" rx="6" fill="#F7E6D7" stroke="#B98560" stroke-width="1.5" fill-opacity="1"/><text x="614" y="1005.14" font-family="Arial, sans-serif" font-size="13" fill="#17243A" text-anchor="middle" font-weight="700"><tspan x="614" dy="0">t</tspan></text><polyline points="614,987 614,975" fill="none" stroke="#B98560" stroke-width="1.3"  marker-end="url(#head)"/><polygon points="1411.574,966.698 1511.058,940.479 1499.875,934 1400.39,960.219" fill="#BBD2E3" stroke="#688497" stroke-width="1.35"/><polygon points="1400.39,960.219 1411.574,966.698 1411.574,1086.364 1400.39,1079.885" fill="#7594AA" stroke="#688497" stroke-width="1.35"/><polygon points="1411.574,966.698 1511.058,940.479 1511.058,1060.144 1411.574,1086.364" fill="#91B7D2" stroke="#688497" stroke-width="1.35"/><polygon points="1428.35,976.416 1527.834,950.197 1516.65,943.718 1417.166,969.937" fill="#C3D8E6" stroke="#688497" stroke-width="1.35"/><polygon points="1417.166,969.937 1428.35,976.416 1428.35,1096.081 1417.166,1089.603" fill="#809CAE" stroke="#688497" stroke-width="1.35"/><polygon points="1428.35,976.416 1527.834,950.197 1527.834,1069.862 1428.35,1096.081" fill="#9EC0D7" stroke="#688497" stroke-width="1.35"/><polygon points="1445.125,986.134 1544.61,959.914 1533.426,953.436 1433.942,979.655" fill="#BBD2E3" stroke="#688497" stroke-width="1.35"/><polygon points="1433.942,979.655 1445.125,986.134 1445.125,1105.799 1433.942,1099.321" fill="#7594AA" stroke="#688497" stroke-width="1.35"/><polygon points="1445.125,986.134 1544.61,959.914 1544.61,1079.58 1445.125,1105.799" fill="#91B7D2" stroke="#688497" stroke-width="1.35"/><polygon points="1445.125,986.134 1469.997,979.579 1469.997,1009.495 1445.125,1016.05" fill="#9EC0D7" stroke="#FFFFFF" stroke-width="0.8"/><polygon points="1469.997,979.579 1494.868,973.024 1494.868,1002.941 1469.997,1009.495" fill="#C6DAE8" stroke="#FFFFFF" stroke-width="0.8"/><polygon points="1494.868,973.024 1519.739,966.469 1519.739,996.386 1494.868,1002.941" fill="#B2CDE0" stroke="#FFFFFF" stroke-width="0.8"/><polygon points="1519.739,966.469 1544.61,959.914 1544.61,989.831 1519.739,996.386" fill="#C6DAE8" stroke="#FFFFFF" stroke-width="0.8"/><polygon points="1445.125,1016.05 1469.997,1009.495 1469.997,1039.412 1445.125,1045.967" fill="#C6DAE8" stroke="#FFFFFF" stroke-width="0.8"/><polygon points="1469.997,1009.495 1494.868,1002.941 1494.868,1032.857 1469.997,1039.412" fill="#9EC0D7" stroke="#FFFFFF" stroke-width="0.8"/><polygon points="1494.868,1002.941 1519.739,996.386 1519.739,1026.302 1494.868,1032.857" fill="#B2CDE0" stroke="#FFFFFF" stroke-width="0.8"/><polygon points="1519.739,996.386 1544.61,989.831 1544.61,1019.747 1519.739,1026.302" fill="#8AAEC8" stroke="#FFFFFF" stroke-width="0.8"/><polygon points="1445.125,1045.967 1469.997,1039.412 1469.997,1069.328 1445.125,1075.883" fill="#B2CDE0" stroke="#FFFFFF" stroke-width="0.8"/><polygon points="1469.997,1039.412 1494.868,1032.857 1494.868,1062.773 1469.997,1069.328" fill="#B2CDE0" stroke="#FFFFFF" stroke-width="0.8"/><polygon points="1494.868,1032.857 1519.739,1026.302 1519.739,1056.219 1494.868,1062.773" fill="#B2CDE0" stroke="#FFFFFF" stroke-width="0.8"/><polygon points="1519.739,1026.302 1544.61,1019.747 1544.61,1049.664 1519.739,1056.219" fill="#9EC0D7" stroke="#FFFFFF" stroke-width="0.8"/><polygon points="1445.125,1075.883 1469.997,1069.328 1469.997,1099.245 1445.125,1105.799" fill="#9EC0D7" stroke="#FFFFFF" stroke-width="0.8"/><polygon points="1469.997,1069.328 1494.868,1062.773 1494.868,1092.69 1469.997,1099.245" fill="#8AAEC8" stroke="#FFFFFF" stroke-width="0.8"/><polygon points="1494.868,1062.773 1519.739,1056.219 1519.739,1086.135 1494.868,1092.69" fill="#B2CDE0" stroke="#FFFFFF" stroke-width="0.8"/><polygon points="1519.739,1056.219 1544.61,1049.664 1544.61,1079.58 1519.739,1086.135" fill="#C6DAE8" stroke="#FFFFFF" stroke-width="0.8"/><text x="1472.5" y="918.48" font-family="Arial, sans-serif" font-size="16" fill="#17243A" text-anchor="middle" font-weight="700"><tspan x="1472.5" dy="0">Opaque 3D features</tspan></text><text x="1472.5" y="1125.4393827575307" font-family="Arial, sans-serif" font-size="13" fill="#586B80" text-anchor="middle" font-weight="400"><tspan x="1472.5" dy="0">Visible surfaces only</tspan></text></svg>