<svg xmlns="http://www.w3.org/2000/svg" width="1560" height="900" viewBox="0 0 1560 900"><defs><marker id="head" viewBox="0 0 10 10" refX="9" refY="5" markerWidth="6" markerHeight="6" orient="auto-start-reverse"><path d="M0 0L10 5L0 10Z" fill="context-stroke"/></marker></defs><rect width="100%" height="100%" fill="white"/><text x="40" y="55.83999999999999" font-family="Arial, sans-serif" font-size="28" fill="#302D35" text-anchor="start" font-weight="700"><tspan x="40" dy="0">(a)</tspan></text><rect x="65" y="125" width="160" height="160" rx="0" fill="#E6E9ED" stroke="#E6E9ED" stroke-width="0" fill-opacity="1"/><rect x="65" y="221" width="160" height="8.16" rx="0" fill="#D3D6DB" stroke="#D3D6DB" stroke-width="0" fill-opacity="1"/><rect x="65" y="229" width="160" height="8.16" rx="0" fill="#D3D6DB" stroke="#D3D6DB" stroke-width="0" fill-opacity="1"/><rect x="65" y="237" width="160" height="8.16" rx="0" fill="#D3D6DB" stroke="#D3D6DB" stroke-width="0" fill-opacity="1"/><rect x="65" y="245" width="160" height="8.16" rx="0" fill="#D3D6DB" stroke="#D3D6DB" stroke-width="0" fill-opacity="1"/><rect x="65" y="253" width="160" height="8.16" rx="0" fill="#D3D6DB" stroke="#D3D6DB" stroke-width="0" fill-opacity="1"/><rect x="65" y="261" width="160" height="8.16" rx="0" fill="#D3D6DB" stroke="#D3D6DB" stroke-width="0" fill-opacity="1"/><rect x="65" y="269" width="160" height="8.16" rx="0" fill="#D3D6DB" stroke="#D3D6DB" stroke-width="0" fill-opacity="1"/><rect x="65" y="277" width="160" height="8.16" rx="0" fill="#D3D6DB" stroke="#D3D6DB" stroke-width="0" fill-opacity="1"/><ellipse cx="150.6" cy="261.8" rx="53.6" ry="10.4" fill="#B1B6BF" stroke="#B1B6BF" stroke-width="0"/><ellipse cx="146.6" cy="249.8" rx="33.6" ry="12.8" fill="#F5F7FA" stroke="#F5F7FA" stroke-width="0"/><rect x="113" y="169.8" width="9.76" height="80" rx="0" fill="#626E80" stroke="#626E80" stroke-width="0" fill-opacity="1"/><rect x="122.6" y="169.8" width="9.76" height="80" rx="0" fill="#A5B0BE" stroke="#A5B0BE" stroke-width="0" fill-opacity="1"/><rect x="132.2" y="169.8" width="9.76" height="80" rx="0" fill="#F5F7FA" stroke="#F5F7FA" stroke-width="0" fill-opacity="1"/><rect x="141.8" y="169.8" width="9.76" height="80" rx="0" fill="#FFFFFF" stroke="#FFFFFF" stroke-width="0" fill-opacity="1"/><rect x="151.4" y="169.8" width="9.76" height="80" rx="0" fill="#B2BDCC" stroke="#B2BDCC" stroke-width="0" fill-opacity="1"/><rect x="161" y="169.8" width="9.76" height="80" rx="0" fill="#6E7D91" stroke="#6E7D91" stroke-width="0" fill-opacity="1"/><rect x="170.6" y="169.8" width="9.76" height="80" rx="0" fill="#D5DDE6" stroke="#D5DDE6" stroke-width="0" fill-opacity="1"/><ellipse cx="146.6" cy="169.8" rx="33.6" ry="12.8" fill="#ECF0F5" stroke="#7D8999" stroke-width="0.7"/><ellipse cx="146.6" cy="169.4" rx="25.6" ry="6.800000000000001" fill="#7C899B" stroke="#D9E0E8" stroke-width="0.7"/><text x="145" y="335.84" font-family="Arial, sans-serif" font-size="28" fill="#302D35" text-anchor="middle" font-weight="400"><tspan x="145" dy="0">RGB</tspan></text><polyline points="236,205 305,205" fill="none" stroke="#302D35" stroke-width="2"  marker-end="url(#head)"/><rect x="335" y="94" width="168" height="186" rx="6" fill="#FFFFFF" stroke="#9CAAC3" stroke-width="1.5" fill-opacity="1"/><rect x="325" y="103" width="168" height="186" rx="6" fill="#FFFFFF" stroke="#9CAAC3" stroke-width="1.5" fill-opacity="1"/><rect x="315" y="112" width="168" height="186" rx="6" fill="#DFE8FA" stroke="#9CAAC3" stroke-width="1.5" fill-opacity="1"/><text x="399" y="203.96" font-family="Arial, sans-serif" font-size="32" fill="#302D35" text-anchor="middle" font-weight="700"><tspan x="399" dy="0">ViT</tspan></text><rect x="325" y="256" width="16" height="34" rx="2" fill="#DFE8FA" stroke="#B9B1BE" stroke-width="1" fill-opacity="1"/><rect x="347" y="256" width="16" height="34" rx="2" fill="#E7EDDE" stroke="#B9B1BE" stroke-width="1" fill-opacity="1"/><rect x="369" y="256" width="16" height="34" rx="2" fill="#E8E0EF" stroke="#B9B1BE" stroke-width="1" fill-opacity="1"/><rect x="391" y="256" width="16" height="34" rx="2" fill="#DFE8FA" stroke="#B9B1BE" stroke-width="1" fill-opacity="1"/><rect x="413" y="256" width="16" height="34" rx="2" fill="#E7EDDE" stroke="#B9B1BE" stroke-width="1" fill-opacity="1"/><rect x="435" y="256" width="16" height="34" rx="2" fill="#E8E0EF" stroke="#B9B1BE" stroke-width="1" fill-opacity="1"/><rect x="457" y="256" width="16" height="34" rx="2" fill="#DFE8FA" stroke="#B9B1BE" stroke-width="1" fill-opacity="1"/><polyline points="503,141 555,141 605,175 630,175" fill="none" stroke="#302D35" stroke-width="1.5"  marker-end="url(#head)"/><polyline points="503,183 555,183 605,195 630,195" fill="none" stroke="#302D35" stroke-width="1.5"  marker-end="url(#head)"/><polyline points="503,225 555,225 605,215 630,215" fill="none" stroke="#302D35" stroke-width="1.5"  marker-end="url(#head)"/><polyline points="503,267 555,267 605,235 630,235" fill="none" stroke="#302D35" stroke-width="1.5"  marker-end="url(#head)"/><polygon points="630,161.88 834,107 834,303 630,248.12" fill="#E7EDDE" stroke="#879B76" stroke-width="1.7"/><text x="732" y="212.28" font-family="Arial, sans-serif" font-size="26" fill="#302D35" text-anchor="middle" font-weight="700"><tspan x="732" dy="0">DPT</tspan></text><polyline points="836,205 895,205" fill="none" stroke="#302D35" stroke-width="2"  marker-end="url(#head)"/><polygon points="912,165 990,165 990,243 912,243" fill="#FFFFFF" stroke="#A497B4" stroke-width="1"/><polygon points="906,168 984,168 984,246 906,246" fill="#FFFFFF" stroke="#A497B4" stroke-width="1"/><polygon points="900,171 978,171 978,249 900,249" fill="#E8E0EF" stroke="#A497B4" stroke-width="1"/><text x="945" y="335.84" font-family="Arial, sans-serif" font-size="28" fill="#302D35" text-anchor="middle" font-weight="400"><tspan x="945" dy="0">F</tspan></text><polyline points="991,205 1040,205" fill="none" stroke="#302D35" stroke-width="2"  marker-end="url(#head)"/><polygon points="1040,183 1148,155 1148,255 1040,227" fill="#E7EDDE" stroke="#879B76" stroke-width="1.7"/><text x="1094" y="212.28" font-family="Arial, sans-serif" font-size="26" fill="#302D35" text-anchor="middle" font-weight="700"><tspan x="1094" dy="0">D₀</tspan></text><polyline points="1150,205 1222,205" fill="none" stroke="#302D35" stroke-width="2"  marker-end="url(#head)"/><ellipse cx="1244" cy="205" rx="22" ry="22" fill="#FFFFFF" stroke="#302D35" stroke-width="1.7"/><text x="1244" y="213.4" font-family="Arial, sans-serif" font-size="30" fill="#302D35" text-anchor="middle" font-weight="400"><tspan x="1244" dy="0">+</tspan></text><polyline points="1267,205 1325,205" fill="none" stroke="#302D35" stroke-width="2"  marker-end="url(#head)"/><rect x="1335" y="125" width="160" height="160" rx="0" fill="#34375D" stroke="#34375D" stroke-width="0" fill-opacity="1"/><rect x="1335" y="221" width="160" height="8.16" rx="0" fill="#535584" stroke="#535584" stroke-width="0" fill-opacity="1"/><rect x="1335" y="229" width="160" height="8.16" rx="0" fill="#646596" stroke="#646596" stroke-width="0" fill-opacity="1"/><rect x="1335" y="237" width="160" height="8.16" rx="0" fill="#7576A6" stroke="#7576A6" stroke-width="0" fill-opacity="1"/><rect x="1335" y="245" width="160" height="8.16" rx="0" fill="#8987B2" stroke="#8987B2" stroke-width="0" fill-opacity="1"/><rect x="1335" y="253" width="160" height="8.16" rx="0" fill="#9D97BE" stroke="#9D97BE" stroke-width="0" fill-opacity="1"/><rect x="1335" y="261" width="160" height="8.16" rx="0" fill="#B3ABC9" stroke="#B3ABC9" stroke-width="0" fill-opacity="1"/><rect x="1335" y="269" width="160" height="8.16" rx="0" fill="#C9BED5" stroke="#C9BED5" stroke-width="0" fill-opacity="1"/><rect x="1335" y="277" width="160" height="8.16" rx="0" fill="#E1D3E1" stroke="#E1D3E1" stroke-width="0" fill-opacity="1"/><ellipse cx="1416.6" cy="249.8" rx="33.6" ry="12.8" fill="#E3D4E4" stroke="#E3D4E4" stroke-width="0"/><rect x="1383" y="169.8" width="9.76" height="80" rx="0" fill="#C5BDDC" stroke="#C5BDDC" stroke-width="0" fill-opacity="1"/><rect x="1392.6" y="169.8" width="9.76" height="80" rx="0" fill="#D5CAE1" stroke="#D5CAE1" stroke-width="0" fill-opacity="1"/><rect x="1402.2" y="169.8" width="9.76" height="80" rx="0" fill="#E3D4E4" stroke="#E3D4E4" stroke-width="0" fill-opacity="1"/><rect x="1411.8" y="169.8" width="9.76" height="80" rx="0" fill="#EBDDE8" stroke="#EBDDE8" stroke-width="0" fill-opacity="1"/><rect x="1421.4" y="169.8" width="9.76" height="80" rx="0" fill="#E3D4E4" stroke="#E3D4E4" stroke-width="0" fill-opacity="1"/><rect x="1431" y="169.8" width="9.76" height="80" rx="0" fill="#D5CAE1" stroke="#D5CAE1" stroke-width="0" fill-opacity="1"/><rect x="1440.6" y="169.8" width="9.76" height="80" rx="0" fill="#C5BDDC" stroke="#C5BDDC" stroke-width="0" fill-opacity="1"/><ellipse cx="1416.6" cy="169.8" rx="33.6" ry="12.8" fill="#DDD0E3" stroke="#DDD0E3" stroke-width="0"/><text x="1415" y="335.84" font-family="Arial, sans-serif" font-size="28" fill="#302D35" text-anchor="middle" font-weight="400"><tspan x="1415" dy="0">Depth¹</tspan></text><polyline points="40,390 1500,390" fill="none" stroke="#B9B1BE" stroke-width="1"  /><text x="40" y="441.84" font-family="Arial, sans-serif" font-size="28" fill="#302D35" text-anchor="start" font-weight="700"><tspan x="40" dy="0">(b)  Multi-scale fusion</tspan></text><rect x="70" y="492" width="16" height="34" rx="2" fill="#DFE8FA" stroke="#B9B1BE" stroke-width="1" fill-opacity="1"/><rect x="92" y="492" width="16" height="34" rx="2" fill="#E7EDDE" stroke="#B9B1BE" stroke-width="1" fill-opacity="1"/><rect x="114" y="492" width="16" height="34" rx="2" fill="#E8E0EF" stroke="#B9B1BE" stroke-width="1" fill-opacity="1"/><rect x="136" y="492" width="16" height="34" rx="2" fill="#DFE8FA" stroke="#B9B1BE" stroke-width="1" fill-opacity="1"/><polyline points="112,528 112,569" fill="none" stroke="#302D35" stroke-width="1.6"  marker-end="url(#head)"/><polygon points="104.5,575 139.5,575 139.5,610 104.5,610" fill="#FFFFFF" stroke="#A497B4" stroke-width="1"/><polygon points="99.5,577.5 134.5,577.5 134.5,612.5 99.5,612.5" fill="#FFFFFF" stroke="#A497B4" stroke-width="1"/><polygon points="94.5,580 129.5,580 129.5,615 94.5,615" fill="#E8E0EF" stroke="#A497B4" stroke-width="1"/><polyline points="112,615 112,704" fill="none" stroke="#302D35" stroke-width="1.6"  marker-end="url(#head)"/><ellipse cx="112" cy="724" rx="20" ry="20" fill="#FFFFFF" stroke="#A497B4" stroke-width="1.5"/><text x="112" y="731.84" font-family="Arial, sans-serif" font-size="28" fill="#302D35" text-anchor="middle" font-weight="400"><tspan x="112" dy="0">+</tspan></text><polyline points="133,724 262,724" fill="none" stroke="#302D35" stroke-width="1.6"  marker-end="url(#head)"/><rect x="240" y="492" width="16" height="34" rx="2" fill="#DFE8FA" stroke="#B9B1BE" stroke-width="1" fill-opacity="1"/><rect x="262" y="492" width="16" height="34" rx="2" fill="#E7EDDE" stroke="#B9B1BE" stroke-width="1" fill-opacity="1"/><rect x="284" y="492" width="16" height="34" rx="2" fill="#E8E0EF" stroke="#B9B1BE" stroke-width="1" fill-opacity="1"/><rect x="306" y="492" width="16" height="34" rx="2" fill="#DFE8FA" stroke="#B9B1BE" stroke-width="1" fill-opacity="1"/><polyline points="282,528 282,569" fill="none" stroke="#302D35" stroke-width="1.6"  marker-end="url(#head)"/><polygon points="266,575 318,575 318,627 266,627" fill="#FFFFFF" stroke="#A497B4" stroke-width="1"/><polygon points="261,577.5 313,577.5 313,629.5 261,629.5" fill="#FFFFFF" stroke="#A497B4" stroke-width="1"/><polygon points="256,580 308,580 308,632 256,632" fill="#E8E0EF" stroke="#A497B4" stroke-width="1"/><polyline points="282,632 282,704" fill="none" stroke="#302D35" stroke-width="1.6"  marker-end="url(#head)"/><ellipse cx="282" cy="724" rx="20" ry="20" fill="#FFFFFF" stroke="#A497B4" stroke-width="1.5"/><text x="282" y="731.84" font-family="Arial, sans-serif" font-size="28" fill="#302D35" text-anchor="middle" font-weight="400"><tspan x="282" dy="0">+</tspan></text><polyline points="303,724 432,724" fill="none" stroke="#302D35" stroke-width="1.6"  marker-end="url(#head)"/><rect x="410" y="492" width="16" height="34" rx="2" fill="#DFE8FA" stroke="#B9B1BE" stroke-width="1" fill-opacity="1"/><rect x="432" y="492" width="16" height="34" rx="2" fill="#E7EDDE" stroke="#B9B1BE" stroke-width="1" fill-opacity="1"/><rect x="454" y="492" width="16" height="34" rx="2" fill="#E8E0EF" stroke="#B9B1BE" stroke-width="1" fill-opacity="1"/><rect x="476" y="492" width="16" height="34" rx="2" fill="#DFE8FA" stroke="#B9B1BE" stroke-width="1" fill-opacity="1"/><polyline points="452,528 452,569" fill="none" stroke="#302D35" stroke-width="1.6"  marker-end="url(#head)"/><polygon points="427,575 497,575 497,645 427,645" fill="#FFFFFF" stroke="#A497B4" stroke-width="1"/><polygon points="422,577.5 492,577.5 492,647.5 422,647.5" fill="#FFFFFF" stroke="#A497B4" stroke-width="1"/><polygon points="417,580 487,580 487,650 417,650" fill="#E8E0EF" stroke="#A497B4" stroke-width="1"/><polyline points="452,650 452,704" fill="none" stroke="#302D35" stroke-width="1.6"  marker-end="url(#head)"/><ellipse cx="452" cy="724" rx="20" ry="20" fill="#FFFFFF" stroke="#A497B4" stroke-width="1.5"/><text x="452" y="731.84" font-family="Arial, sans-serif" font-size="28" fill="#302D35" text-anchor="middle" font-weight="400"><tspan x="452" dy="0">+</tspan></text><polyline points="473,724 602,724" fill="none" stroke="#302D35" stroke-width="1.6"  marker-end="url(#head)"/><rect x="580" y="492" width="16" height="34" rx="2" fill="#DFE8FA" stroke="#B9B1BE" stroke-width="1" fill-opacity="1"/><rect x="602" y="492" width="16" height="34" rx="2" fill="#E7EDDE" stroke="#B9B1BE" stroke-width="1" fill-opacity="1"/><rect x="624" y="492" width="16" height="34" rx="2" fill="#E8E0EF" stroke="#B9B1BE" stroke-width="1" fill-opacity="1"/><rect x="646" y="492" width="16" height="34" rx="2" fill="#DFE8FA" stroke="#B9B1BE" stroke-width="1" fill-opacity="1"/><polyline points="622,528 622,569" fill="none" stroke="#302D35" stroke-width="1.6"  marker-end="url(#head)"/><polygon points="588,575 676,575 676,663 588,663" fill="#FFFFFF" stroke="#A497B4" stroke-width="1"/><polygon points="583,577.5 671,577.5 671,665.5 583,665.5" fill="#FFFFFF" stroke="#A497B4" stroke-width="1"/><polygon points="578,580 666,580 666,668 578,668" fill="#E8E0EF" stroke="#A497B4" stroke-width="1"/><polyline points="622,668 622,704" fill="none" stroke="#302D35" stroke-width="1.6"  marker-end="url(#head)"/><ellipse cx="622" cy="724" rx="20" ry="20" fill="#FFFFFF" stroke="#A497B4" stroke-width="1.5"/><text x="622" y="731.84" font-family="Arial, sans-serif" font-size="28" fill="#302D35" text-anchor="middle" font-weight="400"><tspan x="622" dy="0">+</tspan></text><text x="375" y="564.7199999999999" font-family="Arial, sans-serif" font-size="24" fill="#77717E" text-anchor="middle" font-weight="400"><tspan x="375" dy="0">Reassemble</tspan></text><text x="182" y="780.7199999999999" font-family="Arial, sans-serif" font-size="24" fill="#77717E" text-anchor="start" font-weight="400"><tspan x="182" dy="0">↑2</tspan></text><text x="352" y="780.7199999999999" font-family="Arial, sans-serif" font-size="24" fill="#77717E" text-anchor="start" font-weight="400"><tspan x="352" dy="0">↑2</tspan></text><text x="522" y="780.7199999999999" font-family="Arial, sans-serif" font-size="24" fill="#77717E" text-anchor="start" font-weight="400"><tspan x="522" dy="0">↑2</tspan></text><polyline points="642,724 710,724" fill="none" stroke="#302D35" stroke-width="1.6"  marker-end="url(#head)"/><text x="714" y="731.84" font-family="Arial, sans-serif" font-size="28" fill="#302D35" text-anchor="start" font-weight="400"><tspan x="714" dy="0">F</tspan></text><text x="815" y="441.84" font-family="Arial, sans-serif" font-size="28" fill="#302D35" text-anchor="start" font-weight="700"><tspan x="815" dy="0">(c)  Proposed refinement</tspan></text><polyline points="1015,205 1015,365 785,365 785,612 830,612" fill="none" stroke="#C49A65" stroke-width="1.7"  marker-end="url(#head)"/><polygon points="835,578 893,578 893,636 835,636" fill="#FFFFFF" stroke="#A497B4" stroke-width="1"/><polygon points="830,580.5 888,580.5 888,638.5 830,638.5" fill="#E8E0EF" stroke="#A497B4" stroke-width="1"/><polyline points="895,612 925,612 925,534 962,534" fill="none" stroke="#302D35" stroke-width="1.7"  marker-end="url(#head)"/><polyline points="925,612 925,710 962,710" fill="none" stroke="#302D35" stroke-width="1.7"  marker-end="url(#head)"/><polygon points="962,516.4 1072,494 1072,574 962,551.6" fill="#E7EDDE" stroke="#879B76" stroke-width="1.7"/><text x="1017" y="541.2800000000001" font-family="Arial, sans-serif" font-size="26" fill="#302D35" text-anchor="middle" font-weight="700"><tspan x="1017" dy="0">σ</tspan></text><polygon points="962,692.4 1072,670 1072,750 962,727.6" fill="#E7EDDE" stroke="#879B76" stroke-width="1.7"/><text x="1017" y="717.2800000000001" font-family="Arial, sans-serif" font-size="26" fill="#302D35" text-anchor="middle" font-weight="700"><tspan x="1017" dy="0">R</tspan></text><polyline points="1073,534 1110,534" fill="none" stroke="#302D35" stroke-width="1.7"  marker-end="url(#head)"/><polyline points="1073,710 1110,710" fill="none" stroke="#302D35" stroke-width="1.7"  marker-end="url(#head)"/><rect x="1110" y="504" width="14" height="14" rx="0" fill="#E7EDDE" stroke="#B9B1BE" stroke-width="0.7" fill-opacity="1"/><rect x="1125" y="504" width="14" height="14" rx="0" fill="#FFFFFF" stroke="#B9B1BE" stroke-width="0.7" fill-opacity="1"/><rect x="1140" y="504" width="14" height="14" rx="0" fill="#C6D4B6" stroke="#B9B1BE" stroke-width="0.7" fill-opacity="1"/><rect x="1155" y="504" width="14" height="14" rx="0" fill="#E7EDDE" stroke="#B9B1BE" stroke-width="0.7" fill-opacity="1"/><rect x="1110" y="519" width="14" height="14" rx="0" fill="#C6D4B6" stroke="#B9B1BE" stroke-width="0.7" fill-opacity="1"/><rect x="1125" y="519" width="14" height="14" rx="0" fill="#C6D4B6" stroke="#B9B1BE" stroke-width="0.7" fill-opacity="1"/><rect x="1140" y="519" width="14" height="14" rx="0" fill="#C6D4B6" stroke="#B9B1BE" stroke-width="0.7" fill-opacity="1"/><rect x="1155" y="519" width="14" height="14" rx="0" fill="#C6D4B6" stroke="#B9B1BE" stroke-width="0.7" fill-opacity="1"/><rect x="1110" y="534" width="14" height="14" rx="0" fill="#FFFFFF" stroke="#B9B1BE" stroke-width="0.7" fill-opacity="1"/><rect x="1125" y="534" width="14" height="14" rx="0" fill="#E7EDDE" stroke="#B9B1BE" stroke-width="0.7" fill-opacity="1"/><rect x="1140" y="534" width="14" height="14" rx="0" fill="#C6D4B6" stroke="#B9B1BE" stroke-width="0.7" fill-opacity="1"/><rect x="1155" y="534" width="14" height="14" rx="0" fill="#E7EDDE" stroke="#B9B1BE" stroke-width="0.7" fill-opacity="1"/><rect x="1110" y="549" width="14" height="14" rx="0" fill="#E7EDDE" stroke="#B9B1BE" stroke-width="0.7" fill-opacity="1"/><rect x="1125" y="549" width="14" height="14" rx="0" fill="#FFFFFF" stroke="#B9B1BE" stroke-width="0.7" fill-opacity="1"/><rect x="1140" y="549" width="14" height="14" rx="0" fill="#FFFFFF" stroke="#B9B1BE" stroke-width="0.7" fill-opacity="1"/><rect x="1155" y="549" width="14" height="14" rx="0" fill="#C6D4B6" stroke="#B9B1BE" stroke-width="0.7" fill-opacity="1"/><rect x="1110" y="680" width="14" height="14" rx="0" fill="#E8E0EF" stroke="#B9B1BE" stroke-width="0.7" fill-opacity="1"/><rect x="1125" y="680" width="14" height="14" rx="0" fill="#C7BBD9" stroke="#B9B1BE" stroke-width="0.7" fill-opacity="1"/><rect x="1140" y="680" width="14" height="14" rx="0" fill="#FFFFFF" stroke="#B9B1BE" stroke-width="0.7" fill-opacity="1"/><rect x="1155" y="680" width="14" height="14" rx="0" fill="#E8E0EF" stroke="#B9B1BE" stroke-width="0.7" fill-opacity="1"/><rect x="1110" y="695" width="14" height="14" rx="0" fill="#FFFFFF" stroke="#B9B1BE" stroke-width="0.7" fill-opacity="1"/><rect x="1125" y="695" width="14" height="14" rx="0" fill="#FFFFFF" stroke="#B9B1BE" stroke-width="0.7" fill-opacity="1"/><rect x="1140" y="695" width="14" height="14" rx="0" fill="#FFFFFF" stroke="#B9B1BE" stroke-width="0.7" fill-opacity="1"/><rect x="1155" y="695" width="14" height="14" rx="0" fill="#FFFFFF" stroke="#B9B1BE" stroke-width="0.7" fill-opacity="1"/><rect x="1110" y="710" width="14" height="14" rx="0" fill="#C7BBD9" stroke="#B9B1BE" stroke-width="0.7" fill-opacity="1"/><rect x="1125" y="710" width="14" height="14" rx="0" fill="#E8E0EF" stroke="#B9B1BE" stroke-width="0.7" fill-opacity="1"/><rect x="1140" y="710" width="14" height="14" rx="0" fill="#FFFFFF" stroke="#B9B1BE" stroke-width="0.7" fill-opacity="1"/><rect x="1155" y="710" width="14" height="14" rx="0" fill="#E8E0EF" stroke="#B9B1BE" stroke-width="0.7" fill-opacity="1"/><rect x="1110" y="725" width="14" height="14" rx="0" fill="#E8E0EF" stroke="#B9B1BE" stroke-width="0.7" fill-opacity="1"/><rect x="1125" y="725" width="14" height="14" rx="0" fill="#C7BBD9" stroke="#B9B1BE" stroke-width="0.7" fill-opacity="1"/><rect x="1140" y="725" width="14" height="14" rx="0" fill="#C7BBD9" stroke="#B9B1BE" stroke-width="0.7" fill-opacity="1"/><rect x="1155" y="725" width="14" height="14" rx="0" fill="#FFFFFF" stroke="#B9B1BE" stroke-width="0.7" fill-opacity="1"/><text x="1120" y="598" font-family="Arial, sans-serif" font-size="25" fill="#302D35" text-anchor="start" font-weight="400"><tspan x="1120" dy="0">G</tspan></text><text x="1120" y="773" font-family="Arial, sans-serif" font-size="25" fill="#302D35" text-anchor="start" font-weight="400"><tspan x="1120" dy="0">R</tspan></text><polyline points="1171,534 1244,534 1244,600" fill="none" stroke="#302D35" stroke-width="1.7"  marker-end="url(#head)"/><polyline points="1171,710 1244,710 1244,644" fill="none" stroke="#302D35" stroke-width="1.7"  marker-end="url(#head)"/><ellipse cx="1244" cy="622" rx="22" ry="22" fill="#FFFFFF" stroke="#302D35" stroke-width="1.7"/><text x="1244" y="629.84" font-family="Arial, sans-serif" font-size="28" fill="#302D35" text-anchor="middle" font-weight="400"><tspan x="1244" dy="0">×</tspan></text><polyline points="1267,622 1360,622" fill="none" stroke="#302D35" stroke-width="1.7"  marker-end="url(#head)"/><rect x="1360" y="584" width="18" height="18" rx="0" fill="#E7EDDE" stroke="#B9B1BE" stroke-width="0.7" fill-opacity="1"/><rect x="1379" y="584" width="18" height="18" rx="0" fill="#FFFFFF" stroke="#B9B1BE" stroke-width="0.7" fill-opacity="1"/><rect x="1398" y="584" width="18" height="18" rx="0" fill="#E8E0EF" stroke="#B9B1BE" stroke-width="0.7" fill-opacity="1"/><rect x="1417" y="584" width="18" height="18" rx="0" fill="#E7EDDE" stroke="#B9B1BE" stroke-width="0.7" fill-opacity="1"/><rect x="1360" y="603" width="18" height="18" rx="0" fill="#E8E0EF" stroke="#B9B1BE" stroke-width="0.7" fill-opacity="1"/><rect x="1379" y="603" width="18" height="18" rx="0" fill="#E8E0EF" stroke="#B9B1BE" stroke-width="0.7" fill-opacity="1"/><rect x="1398" y="603" width="18" height="18" rx="0" fill="#E8E0EF" stroke="#B9B1BE" stroke-width="0.7" fill-opacity="1"/><rect x="1417" y="603" width="18" height="18" rx="0" fill="#E8E0EF" stroke="#B9B1BE" stroke-width="0.7" fill-opacity="1"/><rect x="1360" y="622" width="18" height="18" rx="0" fill="#FFFFFF" stroke="#B9B1BE" stroke-width="0.7" fill-opacity="1"/><rect x="1379" y="622" width="18" height="18" rx="0" fill="#E7EDDE" stroke="#B9B1BE" stroke-width="0.7" fill-opacity="1"/><rect x="1398" y="622" width="18" height="18" rx="0" fill="#E8E0EF" stroke="#B9B1BE" stroke-width="0.7" fill-opacity="1"/><rect x="1417" y="622" width="18" height="18" rx="0" fill="#E7EDDE" stroke="#B9B1BE" stroke-width="0.7" fill-opacity="1"/><rect x="1360" y="641" width="18" height="18" rx="0" fill="#E7EDDE" stroke="#B9B1BE" stroke-width="0.7" fill-opacity="1"/><rect x="1379" y="641" width="18" height="18" rx="0" fill="#FFFFFF" stroke="#B9B1BE" stroke-width="0.7" fill-opacity="1"/><rect x="1398" y="641" width="18" height="18" rx="0" fill="#FFFFFF" stroke="#B9B1BE" stroke-width="0.7" fill-opacity="1"/><rect x="1417" y="641" width="18" height="18" rx="0" fill="#E8E0EF" stroke="#B9B1BE" stroke-width="0.7" fill-opacity="1"/><text x="1398" y="710.84" font-family="Arial, sans-serif" font-size="28" fill="#302D35" text-anchor="middle" font-weight="400"><tspan x="1398" dy="0">ΔD</tspan></text><polyline points="1398,584 1398,365 1244,365 1244,227" fill="none" stroke="#C49A65" stroke-width="1.7"  marker-end="url(#head)"/><text x="1510" y="852.16" font-family="Arial, sans-serif" font-size="22" fill="#77717E" text-anchor="end" font-weight="400"><tspan x="1510" dy="0">¹ Schematic depth</tspan></text></svg>